<svg width="36" height="36" viewBox="0 0 36 36" fill="none" xmlns="http://www.w3.org/2000/svg">
<path d="M35.8559 17.7929C35.8557 14.4072 34.8855 11.0924 33.0599 8.24095C31.2344 5.38952 28.63 3.12087 25.5552 1.7036C22.4804 0.286331 19.0638 -0.22021 15.71 0.243948C12.3562 0.708106 9.20569 2.12352 6.63135 4.32263C4.05701 6.52174 2.1667 9.41244 1.18422 12.6525C0.20173 15.8926 0.168212 19.3463 1.08763 22.6048C2.00705 25.8633 3.8409 28.7902 6.37207 31.0388C8.90324 33.2875 12.0257 34.7638 15.3699 35.2929V22.9149H10.8699V17.7929H15.3699V13.8929C15.3699 9.45295 18.0149 6.99995 22.0619 6.99995C23.3905 7.01841 24.7161 7.13405 26.0279 7.34595V11.7059H23.7939C23.4132 11.6555 23.0261 11.6914 22.6612 11.8108C22.2962 11.9302 21.9628 12.1302 21.6856 12.3959C21.4084 12.6616 21.1945 12.9862 21.0597 13.3457C20.9249 13.7053 20.8727 14.0905 20.9069 14.4729V17.7959H25.8209L25.0349 22.9169H20.9069V35.2949C25.0742 34.6348 28.8692 32.5094 31.6095 29.3012C34.3497 26.0929 35.8555 22.0122 35.8559 17.7929Z" fill="#1877F2"/>
</svg>
